<svg xmlns="http://www.w3.org/2000/svg" fill="none" viewBox="0 0 141.408 15.8474" preserveAspectRatio="xMidYMid meet">
<g id="Chulakov" clip-path="url(#clip0_0_691)">
<path id="Vector" d="M15.4366 9.81522H10.9774C10.958 10.1715 10.8668 10.5201 10.7093 10.8402C10.5517 11.1603 10.3311 11.4452 10.0606 11.6779C9.78812 11.9124 9.47164 12.0903 9.12965 12.2012C8.78767 12.3121 8.42703 12.3539 8.06875 12.324C5.92691 12.324 4.72617 10.7563 4.72617 7.98789V7.81966C4.72617 5.0293 5.99396 3.48357 8.0078 3.48357C8.34408 3.45674 8.68229 3.49974 9.00116 3.60987C9.32003 3.72001 9.61268 3.8949 9.86072 4.12356C10.3605 4.58557 10.6385 5.23288 10.6311 5.90822H15.2427C14.8709 1.85251 12.0513 0.00811591 7.98707 0.00811591C6.93225 -0.0439124 5.87806 0.122628 4.89064 0.497288C3.90323 0.871947 3.0039 1.44664 2.2491 2.1853C1.49966 2.9181 0.912514 3.80016 0.525698 4.77434C0.138883 5.74852 -0.0389766 6.79309 0.00364204 7.84039V8.01105C0.00364204 12.7141 2.69282 15.847 8.15896 15.847C12.2025 15.847 15.1318 13.7819 15.4366 9.81522ZM24.0271 15.5885V9.54215H29.1641V15.5885H33.6403V0.243389H29.1641V6.10327H24.0259V0.243389H19.5228V15.5837L24.0271 15.5885ZM52.4792 9.30078V0.243389H47.9542V9.10818C47.9542 11.4048 47.3581 12.391 45.5064 12.391C43.6047 12.391 43.0574 11.3402 43.0574 9.17157V0.243389H38.5823V9.36417C38.5786 13.6576 41.0898 15.847 45.5076 15.847C49.8144 15.847 52.4805 13.7637 52.4805 9.30078M67.8085 15.5885V12.1765H61.906V0.24217H57.4017V15.5837L67.8085 15.5885ZM78.5494 3.80661L80.2561 9.70672H76.8245L78.5494 3.80661ZM70.9415 15.5898H75.1191L75.9492 12.736H81.1301L81.9603 15.5885H86.7035L81.7408 0.251922H75.948L70.9415 15.5898ZM94.7637 15.5898V9.17279L99.2668 15.5898H104.447L98.4221 7.36862L104.148 0.243389H99.4655L94.765 6.31782V0.243389H90.2643V15.5837L94.7637 15.5898ZM122.782 7.90743V7.73555C122.782 2.96914 119.27 0.0288394 114.502 0.0288394C113.433 -0.0355887 112.361 0.119693 111.354 0.485117C110.346 0.85054 109.424 1.41837 108.645 2.15361C107.871 2.88369 107.258 3.7669 106.844 4.74702C106.43 5.72714 106.225 6.78269 106.241 7.84648V8.01715C106.242 12.6263 109.388 15.847 114.439 15.847C119.483 15.8482 122.782 12.6287 122.782 7.90743ZM110.912 7.99277V7.81966C110.912 5.0293 112.289 3.46407 114.493 3.46407C116.695 3.46407 118.101 5.07319 118.101 7.80016V7.97082C118.114 10.7173 116.734 12.391 114.525 12.391C112.356 12.391 110.912 10.7819 110.912 7.99277ZM130.184 15.5898H135.267L140.391 0.250703H136.195L133 11.0172L129.83 0.250703H125.012L130.184 15.5898Z" fill="var(--fill-0, #0D1627)"/>
</g>
<defs>
<clipPath id="clip0_0_691">
<rect width="141.408" height="15.8474" fill="white"/>
</clipPath>
</defs>
</svg>
