<svg preserveAspectRatio="none" width="100%" height="100%" overflow="visible" style="display: block;" viewBox="0 0 17.7015 16.5669" fill="none" xmlns="http://www.w3.org/2000/svg">
<path id="Vector" d="M10.8166 0C15.4832 0 18.5357 2.44969 17.4991 7.46457L17.1242 9.25984H3.92822C3.32042 12.189 4.68459 13.6063 7.4771 13.6063H8.00048C10.5161 13.6063 12.147 12.6929 12.9541 11.0236H16.5772C15.4258 14.3622 12.299 16.5669 7.38593 16.5669H6.85917C2.19261 16.5669 -0.832889 14.1417 0.203749 9.13386L0.541416 7.46457C1.59156 2.44969 5.59967 0 10.2966 0H10.8166ZM4.4955 6.54068H13.9502C14.2473 4.20997 12.765 2.91864 10.2358 2.91864H9.71245C7.02125 2.91864 5.17083 4.17848 4.4955 6.54068Z" fill="var(--fill-0, #0D1627)"/>
</svg>
