<svg preserveAspectRatio="none" width="100%" height="100%" overflow="visible" style="display: block;" viewBox="0 0 37.2516 34.864" fill="none" xmlns="http://www.w3.org/2000/svg">
<path id="Vector" d="M22.7629 0C32.5833 0 39.0071 5.15522 36.8256 15.7087L36.0368 19.4867H8.26668C6.9876 25.6509 9.85841 28.6336 15.7351 28.6336H16.8365C22.1304 28.6336 25.5626 26.7114 27.261 23.1985H34.8857C32.4625 30.2243 25.8824 34.864 15.5432 34.864H14.4347C4.6142 34.864 -1.75276 29.7603 0.428777 19.2216L1.13937 15.7087C3.34933 5.15522 11.7841 0 21.6685 0H22.7629ZM9.46048 13.7644H29.3572C29.9825 8.85961 26.863 6.14207 21.5406 6.14207H20.4392C14.7757 6.14207 10.8817 8.79333 9.46048 13.7644Z" fill="var(--fill-0, white)"/>
</svg>
