<svg preserveAspectRatio="none" width="100%" height="100%" overflow="visible" style="display: block;" viewBox="0 0 17.0252 23.797" fill="none" xmlns="http://www.w3.org/2000/svg">
<path id="Vector" d="M3.85953 0.272966V2.3727H4.49772C5.68293 0.776903 7.47595 0 9.70117 0H10.2178C14.1685 0 17.0252 2.3937 17.0252 7.46457V9.09886C17.0252 14.1697 14.1685 16.5634 10.2178 16.5634H9.70117C7.42192 16.5634 5.64917 15.7445 4.50448 14.1382H3.85953V23.797H0V0.272966H3.85953ZM3.85953 7.42257V9.12336C3.85953 11.923 5.59176 13.3438 8.2492 13.3438H8.73545C11.4368 13.3438 13.1251 11.8635 13.1251 9.12336V7.42257C13.1251 4.65092 11.4368 3.1706 8.73545 3.1706H8.26609C5.59177 3.1706 3.85953 4.61942 3.85953 7.42257Z" fill="var(--fill-0, #0D1627)"/>
</svg>
