<svg xmlns="http://www.w3.org/2000/svg" fill="none" viewBox="0 0 84.5194 31.6948" preserveAspectRatio="xMidYMid meet">
<g id="Mish" clip-path="url(#clip0_0_699)">
<path id="Vector" fill-rule="evenodd" clip-rule="evenodd" d="M23.7681 13.9276C25.7256 10.8498 28.2423 9.80062 30.2696 9.80062C32.5766 9.80062 35.0934 11.3395 34.1146 16.1661L31.1784 31.0653H23.1389L25.376 19.7334C25.6556 18.1945 25.1663 17.4251 24.3273 17.4251C23.4885 17.4251 22.5796 18.0547 22.3001 19.7334L20.0629 31.0653H12.0234L14.2605 19.7334C14.5401 18.1945 14.0508 17.4251 13.2119 17.4251C12.373 17.4251 11.4642 18.0547 11.1845 19.7334L8.94744 31.0653H0.907924L4.96263 10.3602H13.0021L12.3031 13.9276H12.6526C14.6101 10.8498 17.1268 9.80062 19.1541 9.80062C21.0416 9.80062 23.0691 10.8498 23.2089 13.9276H23.4186H23.7681ZM45.4399 10.3602H37.4004L33.3457 31.0653H41.3852L45.4399 10.3602ZM52.8501 31.6948C49.3547 31.6948 45.7195 30.6456 43.3426 28.4071L46.9779 23.091C51.0326 25.889 54.5978 25.4693 54.5978 24.49C54.5978 23.8605 53.5493 23.4408 52.221 22.9511C49.7742 22.0417 46.3486 20.7827 46.3486 16.7956C46.3486 12.1789 51.3122 9.73066 55.367 9.73066C58.5128 9.73066 61.0994 10.7099 63.6162 12.5286L60.1207 17.7048C56.3457 15.1168 53.1997 15.6064 53.1997 16.7256C53.1997 17.0753 53.9687 17.3551 55.0174 17.7048C57.5341 18.6142 61.6587 20.0133 61.6587 24.2802C61.6587 27.9176 58.373 31.6948 52.8501 31.6948ZM80.0447 9.80062C78.0174 9.80062 75.5007 10.9198 73.5433 13.9276H73.1937L75.6405 1.61654H67.601L61.7985 31.0653H69.838L72.0751 19.7334C72.4247 18.0547 73.2636 17.4251 74.1024 17.4251C74.9414 17.4251 75.4307 18.1945 75.1511 19.7334L72.914 31.0653H80.9535L83.8898 16.1661C84.8685 11.3395 82.3518 9.80062 80.0447 9.80062ZM47.3275 2.31603C46.4186 0.21755 43.5523 -0.621826 40.9657 0.497365C38.3791 1.61655 36.981 4.20467 37.8897 6.30316C38.7985 8.40164 41.6648 9.24101 44.2513 8.12183C46.838 7.00263 48.2362 4.41452 47.3275 2.31603Z" fill="var(--fill-0, #0D1627)"/>
</g>
<defs>
<clipPath id="clip0_0_699">
<rect width="84.5194" height="31.6948" fill="white"/>
</clipPath>
</defs>
</svg>
