<svg preserveAspectRatio="none" width="100%" height="100%" overflow="visible" style="display: block;" viewBox="0 0 15.347 16.5634" fill="none" xmlns="http://www.w3.org/2000/svg">
<path id="Vector" d="M7.87102 0C12.2607 0 15.1342 1.79528 15.1342 5.32283V5.63779H11.3355V5.28784C11.3355 3.33508 9.78559 2.73666 7.87102 2.73666H7.35439C5.37904 2.73666 4.04187 3.27209 4.04187 4.68941C4.04187 6.10674 5.31826 6.48469 8.66116 6.92563C13.5236 7.62555 15.347 9.00437 15.347 11.6185V11.839C15.347 14.8941 12.6119 16.5634 7.96219 16.5634H7.44556C2.82627 16.5564 0 14.8871 0 11.1986V10.9466H3.76836V11.2616C3.76836 13.0884 5.16631 13.7813 7.44556 13.7813H7.96219C10.4542 13.7813 11.5482 13.1514 11.5482 11.8915C11.5482 10.4917 10.3022 10.0332 6.74659 9.5608C2.55276 9.02887 0.21273 7.92651 0.21273 4.93438V4.71391C0.21273 1.74978 3.06939 0 7.35439 0H7.87102Z" fill="var(--fill-0, #0D1627)"/>
</svg>
