<svg xmlns="http://www.w3.org/2000/svg" fill="none" viewBox="0 0 93.4785 29.5818" preserveAspectRatio="xMidYMid meet">
<g id="Epam" clip-path="url(#clip0_0_668)">
<path id="epam logo" d="M37.1991 1.40459C40.2874 1.40459 41.8114 3.05935 41.8114 5.4749V18.3792C41.8114 20.8278 40.2874 22.4495 37.1991 22.4495C35.0991 22.4495 33.6575 21.6551 32.7928 20.9603V27.6116H29.1698V1.63603H32.7928V2.95928C33.6575 2.23133 35.1402 1.40464 37.1991 1.40459ZM20.9744 1.37139C24.804 1.37139 26.7811 2.92696 26.7811 6.0374V13.0853H18.0926V17.9163C18.0926 19.1406 18.8337 19.7366 20.3573 19.7366H21.0164C22.5398 19.7365 23.2811 19.1405 23.2811 17.9163V15.5667H26.7811V17.8167C26.7811 20.894 24.8452 22.4827 20.9744 22.4827H20.2332C16.4039 22.4826 14.4276 20.9273 14.4276 18.181V6.40068C14.4277 2.9598 16.3629 1.37151 20.2332 1.37139H20.9744ZM50.5409 1.37139C54.3704 1.37139 56.3465 2.92697 56.3465 6.0374V22.2181H52.7235V20.928C51.7352 21.6891 50.3761 22.4495 48.3172 22.4495C45.4348 22.4495 44.076 21.1261 44.076 18.8099V15.0706H43.993C43.993 12.5227 45.0231 11.4967 47.7821 10.7356L52.6405 9.4124V5.93779C52.6404 4.71353 51.8994 4.05205 50.3758 4.05205H49.7996C48.2761 4.05205 47.535 4.71353 47.535 5.93779V8.8499H44.035V6.0374C44.035 2.96009 45.97 1.37143 49.8407 1.37139H50.5409ZM75.2078 1.40459C78.0077 1.40471 79.449 2.7943 79.4491 5.04424V22.2513H75.825V5.63994C75.825 4.61418 75.2073 4.15068 74.0955 4.15068C73.1073 4.15071 72.037 4.44916 70.7606 5.17705V22.2181H67.2186V5.63994C67.2186 4.61418 66.6009 4.15068 65.4891 4.15068C64.5009 4.15074 63.4305 4.44915 62.1541 5.17705V22.2181H58.5301V1.63603H62.1541V2.95928C63.1836 2.16521 64.584 1.40459 66.5604 1.40459C68.4132 1.40467 69.6486 2.0002 70.3075 3.09209C71.584 2.1987 73.1078 1.40459 75.2078 1.40459ZM9.85628 7.32744L3.80355 11.9603L9.85628 16.5267V20.3978L0.591636 13.3831V10.6038L9.85628 3.52178V7.32744ZM93.326 10.6038V13.3831L84.0604 20.3978V16.5267L90.1141 11.9603L84.0604 7.29424V3.52178L93.326 10.6038ZM49.3465 12.9524C48.0288 13.3826 47.576 13.9126 47.576 15.1038V18.2474C47.576 19.24 48.1937 19.7366 49.3465 19.7366C50.4582 19.7035 51.4464 19.4051 52.6405 18.7435V11.9603L49.3465 12.9524ZM36.1287 4.15068C34.9346 4.15068 33.7811 4.54846 32.7928 5.21025V18.6438C33.7811 19.3387 34.9346 19.7034 36.1287 19.7034C37.4462 19.7034 38.2282 19.2068 38.2284 18.0159V5.83818C38.2282 4.64722 37.4874 4.15071 36.1287 4.15068ZM20.3983 4.11748C18.8748 4.11751 18.1337 4.71357 18.1336 5.93779V10.306H23.2401V5.93779C23.24 4.71353 22.498 4.11748 20.9744 4.11748H20.3983Z" fill="var(--fill-0, #0D1627)"/>
</g>
<defs>
<clipPath id="clip0_0_668">
<rect width="93.4785" height="29.5818" fill="white"/>
</clipPath>
</defs>
</svg>
