<svg xmlns="http://www.w3.org/2000/svg" fill="none" viewBox="0 0 179.542 27.4688" preserveAspectRatio="xMidYMid meet">
<g id="Group 1373">
<path id="Vector" fill-rule="evenodd" clip-rule="evenodd" d="M65.6508 21.5849C67.7958 21.5849 69.5127 20.9896 70.8611 19.7977C72.1762 18.725 73.0388 17.3545 73.5085 15.6864C73.9621 14.0779 73.8711 12.7068 73.1763 11.5751C72.4828 10.4428 71.101 9.84751 68.9561 9.84751C66.8105 9.84751 65.0942 10.4428 63.7619 11.5751C62.4301 12.7068 61.5669 14.0779 61.1145 15.6864C60.6448 17.3551 60.7358 18.725 61.4461 19.7977C62.1241 20.989 63.5059 21.5849 65.6508 21.5849ZM66.4557 18.725C65.8009 18.725 65.3311 18.4868 65.1418 17.8909C64.9353 17.3551 64.9579 16.6396 65.2264 15.6864C65.4782 14.7923 65.8586 14.0779 66.3837 13.4814C66.8921 12.9456 67.4951 12.7068 68.1512 12.7068C68.8066 12.7068 69.2758 12.945 69.4823 13.4814C69.6722 14.0779 69.649 14.7923 69.3978 15.6864C69.1293 16.6401 68.7489 17.3551 68.2405 17.8909C67.7148 18.4862 67.1118 18.725 66.4557 18.725ZM172.261 18.1594C171.665 18.1594 171.315 17.9213 171.152 17.4444C170.928 16.9682 170.917 16.3723 171.136 15.5971C171.354 14.822 171.717 14.1678 172.192 13.7499C172.624 13.273 173.151 13.0944 173.704 13.0355C174.956 13.0355 175.359 13.929 174.932 15.6567C174.714 16.4312 174.367 17.0271 173.935 17.504C173.384 17.9814 172.857 18.1594 172.261 18.1594ZM168.508 10.116L164.33 24.9526H168.62L169.996 20.0662C170.443 21.0193 171.262 21.4962 172.334 21.4962C173.645 21.4962 174.954 21.0789 176.295 20.1252C176.962 19.6064 177.54 18.9827 178.007 18.2785C178.49 17.623 178.877 16.6693 179.238 15.5971C179.675 14.0481 179.643 12.6777 179.128 11.5454C178.613 10.4131 177.529 9.81715 175.861 9.81715C175.205 9.81715 174.559 9.99575 173.82 10.294C173.08 10.5917 172.452 11.1281 171.911 11.7835H171.851L172.32 10.1154L168.508 10.116ZM164.972 16.6675C165.542 14.6411 165.535 12.973 164.756 11.7216C164.036 10.4696 162.611 9.81477 160.586 9.81477C158.858 9.81477 157.277 10.3506 155.842 11.4233C154.349 12.4961 153.35 13.9261 152.813 15.8329C152.31 17.62 152.503 19.0506 153.426 20.0031C154.273 21.0164 155.569 21.4926 157.357 21.4926C158.668 21.4926 159.926 21.2545 161.21 20.7181C162.493 20.1823 163.536 19.2286 164.339 17.8582H160.228C160.025 18.1564 159.72 18.3946 159.371 18.5732C159.083 18.7518 158.708 18.8113 158.35 18.8113C157.754 18.8113 157.329 18.6327 157.029 18.2154C156.729 17.7986 156.685 17.3218 156.869 16.6663H164.972V16.6675ZM157.49 14.4625C157.842 13.2111 158.682 12.555 160.01 12.4961C160.529 12.5556 160.956 12.7342 161.153 13.092C161.41 13.4492 161.513 13.9261 161.362 14.4625H157.49ZM142.953 21.2444L145.185 13.3194H141.49L142.396 10.1017H154.074L153.169 13.3194H149.474L147.243 21.2444H142.953ZM140.928 14.3321C141.143 12.7235 140.823 11.5311 139.893 10.8167C138.945 10.1606 137.735 9.80346 136.305 9.80346C134.458 9.80346 132.893 10.2803 131.459 11.3531C130.042 12.3663 129.027 13.8558 128.49 15.762C127.969 17.6093 128.162 19.0393 129.069 20.0525C129.933 21.0057 131.212 21.542 133 21.542C134.489 21.542 135.961 21.1842 137.234 20.4693C137.901 20.0954 138.501 19.612 139.008 19.0393C139.533 18.444 139.913 17.729 140.267 16.8943H135.976C135.8 17.3265 135.528 17.7133 135.181 18.0261C134.842 18.3838 134.375 18.5624 133.839 18.5624C133.183 18.5624 132.774 18.3249 132.626 17.7879C132.463 17.3111 132.469 16.6556 132.721 15.762C132.804 15.4644 132.965 15.1066 133.125 14.7488C133.285 14.391 133.446 14.0338 133.649 13.7362C133.852 13.4379 134.157 13.1998 134.446 13.0206C134.734 12.842 135.066 12.7229 135.483 12.7229C135.959 12.7229 136.266 12.9015 136.421 13.1992C136.651 13.4373 136.654 13.8552 136.579 14.3315H140.928V14.3321ZM120.097 19.0381C119.144 19.0381 118.751 18.7399 118.919 18.1445C119.02 17.7867 119.223 17.4885 119.512 17.3099C119.8 17.1313 120.072 17.0122 120.446 16.9527C120.778 16.8336 121.212 16.7741 121.586 16.7146C122.037 16.5949 122.428 16.4758 122.879 16.3568C122.72 17.1313 122.433 17.7272 121.984 18.2636C121.475 18.8 120.872 19.0381 120.097 19.0381ZM126.346 21.1831L126.396 21.0045C126.165 20.7663 126.113 20.5282 126.121 20.2895C126.111 20.1109 126.119 19.8728 126.203 19.5745L127.663 14.3904C127.848 13.7344 128.015 13.1391 128.064 12.5431C128.153 12.0514 128.064 11.5438 127.811 11.1126C127.571 10.6958 127.119 10.3976 126.411 10.1595C125.703 9.92133 124.724 9.80167 123.413 9.80167C121.387 9.80167 119.737 10.1595 118.616 10.7548C117.478 11.4108 116.793 12.3639 116.457 13.5552H120.687C120.94 13.0789 121.203 12.7807 121.552 12.6015C121.943 12.483 122.198 12.4229 122.496 12.4229C122.794 12.4229 123.075 12.483 123.399 12.6015C123.664 12.7211 123.775 12.9593 123.717 13.3766C123.523 13.8528 123.023 14.1517 122.215 14.2708C121.84 14.3303 121.406 14.3898 120.972 14.4494C120.479 14.5083 119.986 14.5678 119.416 14.6875C118.939 14.6875 118.429 14.8066 117.962 14.9851C117.452 15.1042 116.908 15.3429 116.483 15.5805C116.059 15.818 115.66 16.1764 115.304 16.5937C114.948 17.011 114.679 17.5474 114.494 18.2023C114.192 19.275 114.374 20.1091 114.998 20.6455C115.545 21.2414 116.372 21.4795 117.384 21.4795C118.218 21.4795 118.95 21.42 119.613 21.1813C120.335 20.9431 121.049 20.5264 121.796 19.99L121.699 21.1813H126.346V21.1831ZM89.3602 21.2444L91.592 13.3194H87.8379L88.744 10.1017H100.482L99.5759 13.3194H95.8224L93.5905 21.2444H89.3602ZM79.9648 18.1594C79.3695 18.1594 79.0194 17.9213 78.8551 17.4444C78.6319 16.9682 78.6205 16.3723 78.839 15.5971C79.0569 14.8226 79.4207 14.1678 79.8957 13.7499C80.3279 13.273 80.8548 13.0944 81.4078 13.0355C82.6592 13.0355 83.0628 13.929 82.6354 15.6567C82.4175 16.4312 82.0704 17.0271 81.6382 17.504C81.0882 17.9814 80.5607 18.1594 79.9648 18.1594ZM76.2125 10.116L72.0345 24.9526H76.325L77.7008 20.0662C78.1473 21.0193 78.9664 21.4962 80.0392 21.4962C81.3501 21.4962 82.6592 21.0789 83.9999 20.1252C84.6667 19.6064 85.2447 18.9827 85.7114 18.2785C86.1942 17.623 86.5818 16.6693 86.9438 15.5971C87.3801 14.0481 87.3486 12.6777 86.8336 11.5454C86.3181 10.4131 85.234 9.81715 83.5659 9.81715C82.9104 9.81715 82.2645 9.99575 81.5251 10.294C80.7857 10.5917 80.1577 11.1281 79.6153 11.7835H79.5558L80.0255 10.1154L76.2125 10.116ZM46.1861 21.2444H50.4171L52.6478 13.3194H56.0447L53.8128 21.2444H58.1033L61.2407 10.1017H49.3235L46.1861 21.2444ZM46.8214 14.3321C47.0363 12.7235 46.716 11.5311 45.7855 10.8167C44.8383 10.1606 43.628 9.80346 42.1975 9.80346C40.3502 9.80346 38.7869 10.2803 37.3522 11.3531C35.9353 12.3663 34.9197 13.8558 34.3827 15.762C33.863 17.6093 34.0558 19.0393 34.9619 20.0525C35.8257 21.0057 37.1051 21.542 38.8923 21.542C40.3817 21.542 41.8534 21.1842 43.1268 20.4693C43.7938 20.0952 44.3933 19.6118 44.9003 19.0393C45.4253 18.444 45.8057 17.729 46.16 16.8943H41.8695C41.6929 17.3266 41.421 17.7135 41.0741 18.0261C40.7354 18.3838 40.268 18.5624 39.7317 18.5624C39.0762 18.5624 38.6666 18.3249 38.5196 17.7879C38.3559 17.3111 38.3618 16.6556 38.6136 15.762C38.6976 15.4644 38.8577 15.1066 39.0185 14.7488C39.1786 14.391 39.3387 14.0338 39.5418 13.7362C39.7448 13.4379 40.0502 13.1998 40.3389 13.0206C40.6276 12.842 40.9592 12.7229 41.3765 12.7229C41.8528 12.7229 42.16 12.9015 42.3148 13.1992C42.5452 13.4373 42.5469 13.8552 42.4725 14.3315H46.8214V14.3321Z" fill="var(--fill-0, #0D1627)"/>
<path id="Vector_2" fill-rule="evenodd" clip-rule="evenodd" d="M102.564 6.64022L105.493 20.2785L116.171 6.54914L107.66 12.5292L102.564 6.64022Z" fill="var(--fill-0, #0D1627)"/>
<path id="Vector_3" fill-rule="evenodd" clip-rule="evenodd" d="M101.682 10.1102L98.5091 21.2153H104.002L101.682 10.1102ZM115.165 10.1102L106.684 21.2153H111.993L115.165 10.1102Z" fill="var(--fill-0, #0D1627)"/>
<path id="Vector_4" fill-rule="evenodd" clip-rule="evenodd" d="M33.4244 4.2853L23.0509 16.0489L0 4.38412L21.79 8.97823L33.4244 4.2853Z" fill="var(--fill-0, #0D1627)"/>
<path id="Vector_5" fill-rule="evenodd" clip-rule="evenodd" d="M2.07702 27.4688L14.2335 13.6829L41.2481 27.3533L15.7111 21.9686L2.07702 27.4688ZM21.1107 0.0119196C19.1164 0.173252 17.6203 1.93243 17.7822 3.92796C17.9442 5.92348 19.7034 7.41893 21.6977 7.257C23.6932 7.09567 25.1887 5.33649 25.0267 3.34156C24.8654 1.34604 23.1062 -0.149413 21.1107 0.0119196Z" fill="var(--fill-0, #0D1627)"/>
</g>
</svg>
