<svg preserveAspectRatio="none" width="100%" height="100%" overflow="visible" style="display: block;" viewBox="0 0 17.6981 16.5564" fill="none" xmlns="http://www.w3.org/2000/svg">
<path id="Vector" d="M10.8166 0C15.4798 0 18.5323 2.44969 17.4957 7.46457L17.1242 9.25984H3.92484C3.32042 12.189 4.68122 13.6063 7.4771 13.6063H7.9971C10.5127 13.6063 12.147 12.6929 12.9507 11.0236H16.5738C15.4224 14.3482 12.2956 16.5564 7.38255 16.5564H6.85917C2.19261 16.5564 -0.832889 14.1312 0.203749 9.12336L0.541416 7.45407C1.59156 2.44969 5.59629 0 10.2932 0H10.8166ZM4.4955 6.54068H13.9502C14.2473 4.20997 12.765 2.91864 10.219 2.91864H9.69557C7.01787 2.91864 5.17083 4.17848 4.4955 6.54068Z" fill="var(--fill-0, #0D1627)"/>
</svg>
