<svg preserveAspectRatio="none" width="100%" height="100%" overflow="visible" style="display: block;" viewBox="0 0 37.2446 34.8419" fill="none" xmlns="http://www.w3.org/2000/svg">
<path id="Vector" d="M22.7629 0C32.5762 0 39 5.15522 36.8185 15.7087L36.0368 19.4867H8.25957C6.9876 25.6509 9.85131 28.6336 15.7351 28.6336H16.8294C22.1233 28.6336 25.5626 26.7114 27.2539 23.1985H34.8786C32.4554 30.1948 25.8753 34.8419 15.5361 34.8419H14.4347C4.6142 34.8419 -1.75276 29.7382 0.428777 19.1995L1.13937 15.6866C3.34933 5.15522 11.777 0 21.6614 0H22.7629ZM9.46048 13.7644H29.3572C29.9825 8.85961 26.863 6.14207 21.5051 6.14207H20.4037C14.7686 6.14207 10.8817 8.79333 9.46048 13.7644Z" fill="var(--fill-0, white)"/>
</svg>
