<svg xmlns="http://www.w3.org/2000/svg" fill="none" viewBox="0 0 159.225 40.1465" preserveAspectRatio="xMidYMid meet">
<g id="Group 1341">
<path id="Subtract" d="M20.876 1.79276e-10C29.9601 -3.93512e-07 34.5021 0.000384931 37.3242 2.82227C40.1463 5.64433 40.1465 10.1863 40.1465 19.2705V20.876C40.1465 29.9602 40.1463 34.5021 37.3242 37.3242C34.5021 40.1463 29.9601 40.1465 20.876 40.1465H19.2705C10.1864 40.1465 5.64435 40.1463 2.82227 37.3242C0.000301829 34.5021 4.00712e-07 29.96 2.15001e-10 20.876V19.2705C-4.00286e-07 10.1864 0.000255894 5.64438 2.82227 2.82227C5.64435 0.000336503 10.1864 3.93868e-07 19.2705 1.79276e-10H20.876ZM23.793 7.44238C22.5644 7.1355 21.373 8.05985 21.373 9.32031V11.6748L16.4717 10.4512C15.2431 10.1443 14.0518 11.0687 14.0518 12.3291V14.6855L9.15039 13.4609C7.92193 13.1543 6.73145 14.0795 6.73145 15.3398V28.4131C6.73145 29.5228 7.48961 30.4905 8.57129 30.7607L16.3516 32.7041C17.5801 33.011 18.7715 32.0866 18.7715 30.8262V28.4688L23.6729 29.6943C24.9012 30.0009 26.0915 29.0766 26.0918 27.8164V25.4609L30.9941 26.6855C32.2225 26.9921 33.413 26.0679 33.4131 24.8076V11.7334C33.4131 10.6237 32.6549 9.65591 31.5732 9.38574L23.793 7.44238Z" fill="var(--fill-0, #0D1627)"/>
<path id="Vector" d="M20.9859 29.0265C20.6452 28.9397 20.4027 28.6385 20.3908 28.2871L20.0523 18.3025C19.9544 16.981 18.9735 15.93 17.9484 15.6205C17.8908 15.6031 17.8294 15.6265 17.7953 15.676C17.7607 15.7264 17.774 15.796 17.8224 15.8334C18.0755 16.0294 18.7722 16.6688 18.7722 17.7718L18.7701 28.465L20.9859 29.0265Z" fill="var(--fill-0, #0D1627)"/>
<path id="Vector_2" d="M28.3096 26.0136C27.9692 25.9284 27.7264 25.628 27.7145 25.2773L27.3759 15.2934C27.278 13.9719 26.2971 12.921 25.272 12.6115C25.2145 12.5941 25.153 12.6175 25.119 12.667C25.0843 12.7173 25.0977 12.787 25.146 12.8244C25.3991 13.0203 26.0959 13.6598 26.0959 14.7627L26.0938 25.4596L28.3096 26.0136Z" fill="var(--fill-0, #0D1627)"/>
<path id="Vector_3" d="M63.2584 23.0643C66.2986 22.2892 68.2963 19.964 68.2963 16.921C68.2963 13.1604 65.2849 10.5193 61.0576 10.5193H53.5296V30.7578H57.0042V23.3227H59.4654L64.8506 30.7578H68.9332L63.2584 23.0643ZM61.0576 13.6771C63.2292 13.6771 64.7351 14.9976 64.7351 16.921C64.7351 18.8444 63.2292 20.1649 61.0576 20.1649H57.0042V13.6771H61.0576Z" fill="var(--fill-0, #0D1627)"/>
<path id="Vector_4" d="M76.7527 31.0449C78.5766 31.0449 80.2559 30.0976 81.2117 28.5186L81.8773 30.7578H84.3678V15.8301H81.0379V24.471C81.0379 26.5953 79.6191 28.0881 77.6792 28.0881C75.7682 28.0881 74.436 26.5953 74.436 24.471V15.8301H71.1066V24.8442C71.1066 28.4326 73.5386 31.0449 76.7527 31.0449Z" fill="var(--fill-0, #0D1627)"/>
<path id="Vector_5" d="M94.9938 31.0449C98.8447 31.0449 102.03 28.8632 102.03 25.2461C102.03 21.1984 98.7001 20.0214 95.8337 19.0454C93.6042 18.299 91.6644 17.61 91.6644 15.8015C91.6644 14.2226 93.1407 13.3901 94.8779 13.3901C96.7023 13.3901 98.0053 14.3374 98.7293 15.945L102.03 15.3996C100.988 12.2418 98.3525 10.2323 94.7625 10.2323C91.0563 10.2323 88.1027 12.3566 88.1027 15.9737C88.1027 20.0501 91.4326 21.1697 94.299 22.117C96.4998 22.8347 98.4683 23.5236 98.4683 25.3609C98.4683 26.9685 96.992 27.8871 95.023 27.8871C92.7643 27.8871 91.5485 26.825 90.4773 24.9016L87.1182 25.4757C88.1027 28.8919 91.2301 31.0449 94.9938 31.0449Z" fill="var(--fill-0, #0D1627)"/>
<path id="Vector_6" d="M111.089 27.8871C109.96 27.8871 109.41 27.3416 109.41 26.2221V18.7008H113.897V15.8301H109.41V11.5241H106.92L106.08 15.8301H103.619V18.7008H106.08V26.2221C106.08 29.1502 107.788 30.7578 111.089 30.7578H113.897L114.187 27.8871H111.089Z" fill="var(--fill-0, #0D1627)"/>
<path id="Vector_7" d="M123.702 31.0449C128.421 31.0449 131.751 27.8297 131.751 23.294C131.751 18.7582 128.421 15.5431 123.702 15.5431C118.982 15.5431 115.652 18.7582 115.652 23.294C115.652 27.8297 118.982 31.0449 123.702 31.0449ZM123.702 28.0306C120.98 28.0306 119.127 26.1073 119.127 23.294C119.127 20.4807 120.98 18.5573 123.702 18.5573C126.423 18.5573 128.276 20.4807 128.276 23.294C128.276 26.1073 126.423 28.0306 123.702 28.0306Z" fill="var(--fill-0, #0D1627)"/>
<path id="Vector_8" d="M137.975 30.7578V21.9448C137.975 20.0501 138.901 18.9879 140.928 18.9879H142.839L142.55 15.8301H141.913C140.146 15.8301 138.786 16.3181 137.772 17.9832L137.135 15.8301H134.645V30.7578H137.975Z" fill="var(--fill-0, #0D1627)"/>
<path id="Vector_9" d="M159.225 23.1217C159.225 18.8157 155.982 15.5431 151.407 15.5431C146.833 15.5431 143.589 18.787 143.589 23.294C143.589 27.801 146.833 31.0449 151.407 31.0449C154.534 31.0449 157.487 29.5808 158.617 26.7388L155.49 26.2221C154.766 27.2843 153.376 28.0306 151.61 28.0306C149.062 28.0306 147.383 26.4805 147.064 24.1839H159.167C159.196 23.8681 159.225 23.5236 159.225 23.1217ZM151.407 18.4138C153.492 18.4138 155.055 19.7343 155.605 21.6003H147.267C147.817 19.6769 149.38 18.4138 151.407 18.4138Z" fill="var(--fill-0, #0D1627)"/>
</g>
</svg>
