<svg preserveAspectRatio="none" width="100%" height="100%" overflow="visible" style="display: block;" viewBox="0 0 32.2967 34.8566" fill="none" xmlns="http://www.w3.org/2000/svg">
<path id="Vector" d="M16.564 0C25.8018 0 31.849 3.77804 31.849 11.2016V11.8644H23.8548V11.1279C23.8548 7.01846 20.5931 5.75911 16.564 5.75911H15.4768C11.3198 5.75911 8.50586 6.8859 8.50586 9.86856C8.50586 12.8512 11.1919 13.6466 18.2268 14.5745C28.4594 16.0475 32.2967 18.9491 32.2967 24.4505V24.9144C32.2967 31.3437 26.5408 34.8566 16.7559 34.8566H15.6687C5.9477 34.8419 0 31.329 0 23.5667V23.0365H7.93027V23.6993C7.93027 27.5436 10.8721 29.0018 15.6687 29.0018H16.7559C22.0001 29.0018 24.3024 27.6762 24.3024 25.0249C24.3024 22.0791 21.6803 21.1143 14.1977 20.1201C5.37212 19.0007 0.447677 16.6808 0.447677 10.3841V9.92011C0.447677 3.6823 6.45933 0 15.4768 0H16.564Z" fill="var(--fill-0, white)"/>
</svg>
