<svg xmlns="http://www.w3.org/2000/svg" fill="none" viewBox="0 0 47.5422 43.3162" preserveAspectRatio="xMidYMid meet">
<g id="VC">
<path id="vc logo" d="M32.1831 35.5595C32.1831 38.9562 34.6595 39.6878 35.8979 39.6288C40.002 39.6288 41.0278 36.6802 41.0278 35.206V26.538H37.8442V23.3535H44.3891V39.0986H46.6889V42.1054H41.3823V39.0986C40.2501 41.9286 37.0188 42.5178 35.5444 42.4589C30.3082 42.4589 28.9986 38.8037 28.9985 36.9755V26.538H26.1674V23.3535H32.1831V35.5595ZM4.58442 42.1054H1.04633V38.9208H4.58442V42.1054ZM13.6069 27.2451C16.6142 23.7071 17.6759 23.3535 19.4448 23.3535H22.6293V29.0146H19.4448V26.1835H18.3832C17.1446 26.1839 13.7836 28.1659 13.7836 31.1376V38.9208H21.9213V42.1054H7.76899V38.9208H10.9536V26.3603H7.76899V23.3535H13.6069V27.2451ZM37.6664 0.000919193C41.3461 0.000924614 44.2714 1.65191 45.2739 2.47748V7.07709H41.7358V4.07026C41.6178 3.65747 40.7442 2.831 38.1967 2.831C35.0126 2.83116 31.652 4.60066 31.6518 9.73041C31.6518 14.8608 35.3666 16.2763 37.6664 16.2763C39.9662 16.2763 41.5587 15.3918 43.1508 13.9765L45.8041 15.746C44.7425 16.9845 41.7347 19.4609 38.1967 19.4609C33.7741 19.4607 28.1137 16.2758 28.1137 9.73041C28.114 3.18512 33.0669 0.000919193 37.6664 0.000919193ZM16.9682 14.1533L21.9213 0.000919193H27.4057V3.36225H24.2211L18.3832 19.2841H15.1987L9.53852 3.53901H6.35395V0.000919193H12.0151L16.9682 14.1533Z" fill="var(--fill-0, #0D1627)"/>
</g>
</svg>
