<svg xmlns="http://www.w3.org/2000/svg" fill="none" viewBox="0 0 94.0725 33.5443" preserveAspectRatio="xMidYMid meet">
<g id="Group-2">
<path id="Fill-1" fill-rule="evenodd" clip-rule="evenodd" d="M6.40366 0L4.80174 4.38795H27.0007L28.6026 0H6.40366ZM4.00029 6.58093L2.39837 10.9679H24.5973L26.1992 6.58093H4.00029ZM1.60191 13.1619L0 17.5488H22.1989L23.7999 13.1619H1.60191Z" fill="var(--fill-0, #0D1627)"/>
<g id="Mask group">
<mask id="mask0_0_635" style="mask-type:luminance" maskUnits="userSpaceOnUse" x="33" y="6" width="62" height="28">
<g id="Group">
<path id="Vector" d="M33.3055 33.5443H94.0725V6.66529H33.3055V33.5443Z" fill="var(--fill-0, white)"/>
</g>
</mask>
<g mask="url(#mask0_0_635)">
<path id="Fill-2" fill-rule="evenodd" clip-rule="evenodd" d="M47.1935 19.221V19.3135C48.208 19.6859 49.1771 20.337 49.6849 20.7552C51.2536 22.0575 51.946 23.7779 51.946 26.01C51.946 29.6849 50.0079 32.3352 46.8241 33.1725C45.855 33.4513 44.8405 33.5449 42.9478 33.5449H33.3055V6.66529H41.8414C43.5948 6.66529 44.7941 6.75787 45.855 7.03664C48.947 7.87396 50.977 10.0135 50.977 13.4076C50.977 15.2216 50.3309 16.7568 49.27 17.7793C48.8087 18.2443 48.1626 18.8028 47.1935 19.221ZM38.6576 22.0575V29.1263H42.3492C43.4555 29.1263 44.471 29.0337 45.21 28.3358C45.9479 27.6379 46.2709 26.7548 46.2709 25.5919C46.2709 24.7088 46.0397 23.8715 45.5784 23.2671C44.7941 22.2904 43.825 22.0575 42.1644 22.0575H38.6576ZM38.6112 17.4069H41.6103C42.5329 17.4069 42.9942 17.4069 43.4555 17.2676C44.7022 16.8952 45.4866 15.7801 45.4866 14.2449C45.4866 12.4319 44.6558 11.6404 43.4555 11.269C42.9478 11.1296 42.441 11.0828 41.4255 11.0828H38.6112V17.4069ZM59.9742 33.5449V11.1754H52.2691V6.66529H73.6786L72.1563 11.1754H65.3263V33.5449H59.9742ZM75.3391 33.5449V6.66529H92.6886L91.1663 11.1754H80.6458V17.1282H84.937C88.3974 17.1282 90.1973 17.9655 91.4429 19.0348C92.412 19.8721 94.0725 21.7319 94.0725 25.4067C94.0725 29.0337 92.3656 31.0329 90.9352 32.0564C89.2746 33.2183 87.5212 33.5449 83.9679 33.5449H75.3391ZM80.6458 29.0337H84.6604C86.1827 29.0337 87.1053 28.6614 87.7513 27.8241C88.0744 27.4059 88.5357 26.6612 88.5357 25.2663C88.5357 23.8715 88.0744 22.8948 87.1517 22.1968C86.5986 21.7787 85.8596 21.5467 84.614 21.5467H80.6458V29.0337Z" fill="var(--fill-0, #0D1627)"/>
</g>
</g>
</g>
</svg>
