<svg xmlns="http://www.w3.org/2000/svg" fill="none" viewBox="0 0 120.56 32.7514" preserveAspectRatio="xMidYMid meet">
<g id="SB_RUS_RGB">
<path id="Path" d="M95.566 9.80966L100.026 6.51833H85.0944V26.2341H100.026V22.9427H89.3606V17.9089H98.4747V14.6176H89.3606V9.80966H95.566Z" fill="var(--fill-0, #0D1627)"/>
<path id="Shape" d="M73.8189 14.1981H68.6478V9.80966H76.9216L81.3818 6.51833H64.3816V26.2341H73.2695C78.2467 26.2341 81.1232 23.9753 81.1232 20.0386C81.1232 16.2633 78.5376 14.1981 73.8189 14.1981ZM73.1079 22.9427H68.6478V17.4894H73.1079C75.8228 17.4894 77.0832 18.3929 77.0832 20.2322C77.0832 22.0715 75.7258 22.9427 73.1079 22.9427Z" fill="var(--fill-0, #0D1627)"/>
<path id="Shape_2" d="M112.124 6.51833H104.012V26.2341H108.278V20.6517H112.156C117.328 20.6517 120.56 17.9412 120.56 13.585C120.56 9.22884 117.328 6.51833 112.124 6.51833ZM112.027 17.3604H108.246V9.80966H112.027C114.774 9.80966 116.261 11.1649 116.261 13.585C116.261 16.0051 114.774 17.3604 112.027 17.3604Z" fill="var(--fill-0, #0D1627)"/>
<path id="Path_2" d="M57.0747 21.9748C55.9435 22.5879 54.683 22.9106 53.3903 22.9106C49.5442 22.9106 46.7647 20.1678 46.7647 16.3925C46.7647 12.6171 49.5442 9.87434 53.3903 9.87434C54.78 9.84207 56.1374 10.2938 57.2686 11.1005L60.339 8.84176L60.1451 8.64816C58.3675 7.06703 55.9758 6.26033 53.261 6.26033C50.3199 6.26033 47.6373 7.26063 45.6982 9.06764C43.759 10.9392 42.6601 13.5529 42.7247 16.2634C42.6924 19.0062 43.759 21.6521 45.6982 23.5882C47.7343 25.492 50.4492 26.5569 53.2287 26.4923C56.299 26.4923 58.9816 25.4275 60.7915 23.4914L58.0443 21.4585L57.0747 21.9748Z" fill="var(--fill-0, #0D1627)"/>
<g id="Group">
<path id="Path_3" d="M29.3798 6.39039C30.1555 7.3907 30.8019 8.48781 31.3513 9.64946L16.4196 20.6528L10.1496 16.7161V12.005L16.3873 15.9094L29.3798 6.39039Z" fill="var(--fill-0, #0D1627)"/>
<g id="Path_4">
<path id="Vector" d="M3.78141 16.3917C3.78141 16.1658 3.78141 15.9722 3.81373 15.7463L0.0323198 15.5527C0.0323198 15.8109 0 16.1013 0 16.3594C0 20.8769 1.84223 24.975 4.81564 27.9436L7.49818 25.2654C5.20348 23.0066 3.78141 19.8766 3.78141 16.3917Z" fill="var(--fill-0, #0D1627)"/>
<path id="Vector_2" d="M16.3809 3.80734C16.6071 3.80734 16.801 3.80734 17.0273 3.8396L17.2212 0.0642522C16.9626 0.0642522 16.6717 0.0319842 16.4132 0.0319842C11.8884 0.0319842 7.7838 1.87126 4.81039 4.83991L7.49293 7.51815C9.75531 5.22713 12.9226 3.80734 16.3809 3.80734Z" fill="var(--fill-0, #0D1627)"/>
<path id="Vector_3" d="M16.3888 28.976C16.1625 28.976 15.9686 28.976 15.7424 28.9437L15.5485 32.7191C15.807 32.7191 16.0979 32.7514 16.3565 32.7514C20.8812 32.7514 24.9858 30.9121 27.9592 27.9434L25.2767 25.2652C23.0143 27.5885 19.8793 28.976 16.3888 28.976Z" fill="var(--fill-0, #0D1627)"/>
</g>
<g id="Path_5">
<path id="Vector_4" d="M23.4947 6.00184L26.6943 3.64628C23.8825 1.38752 20.295 0 16.3843 0V3.77535C19.0345 3.80762 21.4908 4.61432 23.4947 6.00184Z" fill="var(--fill-0, #0D1627)"/>
<path id="Vector_5" d="M32.8043 16.392C32.8043 15.3917 32.7074 14.4237 32.5458 13.4556L29.0229 16.0694C29.0229 16.1662 29.0229 16.2952 29.0229 16.392C29.0229 20.1029 27.4069 23.4265 24.8537 25.7175L27.4069 28.5248C30.7035 25.5561 32.8043 21.2 32.8043 16.392Z" fill="var(--fill-0, #0D1627)"/>
<path id="Vector_6" d="M16.3869 28.9757C12.6701 28.9757 9.3412 27.3623 7.04649 24.8132L4.23468 27.3623C7.24041 30.6859 11.5713 32.7511 16.3869 32.7511V28.9757Z" fill="var(--fill-0, #0D1627)"/>
<path id="Vector_7" d="M7.95066 7.06758L5.3974 4.26026C2.06846 7.26118 0 11.5851 0 16.393H3.78141C3.78141 12.7145 5.3974 9.3586 7.95066 7.06758Z" fill="var(--fill-0, #0D1627)"/>
</g>
</g>
</g>
</svg>
