<svg preserveAspectRatio="none" width="100%" height="100%" overflow="visible" style="display: block;" viewBox="0 0 35.8283 50.0793" fill="none" xmlns="http://www.w3.org/2000/svg">
<path id="Vector" d="M8.12213 0.574438V4.9932H9.46516C11.9594 1.63494 15.7326 0 20.4155 0H21.5027C29.8167 0 35.8283 5.03739 35.8283 15.7087V19.1479C35.8283 29.8192 29.8167 34.8566 21.5027 34.8566H20.4155C15.6189 34.8566 11.8883 33.1333 9.47937 29.753H8.12213V50.0793H0V0.574438H8.12213ZM8.12213 15.6203V19.1995C8.12213 25.0912 11.7675 28.0812 17.3599 28.0812H18.3832C24.0679 28.0812 27.6209 24.966 27.6209 19.1995V15.6203C27.6209 9.78755 24.0679 6.67232 18.3832 6.67232H17.3954C11.7675 6.67232 8.12213 9.72127 8.12213 15.6203Z" fill="var(--fill-0, white)"/>
</svg>
