<svg width="21" height="21" viewBox="0 0 21 21" fill="none" xmlns="http://www.w3.org/2000/svg" aria-hidden="true">
  <path d="M4.66652 1.76957C6.39323 0.615814 8.4233 0 10.5 0C13.2848 0 15.9555 1.10625 17.9246 3.07538C19.8938 5.04451 21 7.71523 21 10.5C21 12.5767 20.3842 14.6068 19.2304 16.3335C18.0767 18.0602 16.4368 19.406 14.5182 20.2007C12.5996 20.9955 10.4884 21.2034 8.45156 20.7982C6.41476 20.3931 4.54384 19.3931 3.07538 17.9246C1.60693 16.4562 0.606904 14.5852 0.201759 12.5484C-0.203386 10.5116 0.0045495 8.40045 0.79927 6.48182C1.59399 4.5632 2.9398 2.92332 4.66652 1.76957Z" fill="#1859FF"/>
</svg>
